<?xml version="1.0" standalone="no"?><!DOCTYPE svg PUBLIC "-//W3C//DTD SVG 1.1//EN" "http://www.w3.org/Graphics/SVG/1.1/DTD/svg11.dtd"><svg t="1505807000187" class="icon" style="" viewBox="0 0 1024 1024" version="1.1" xmlns="http://www.w3.org/2000/svg" p-id="2479" xmlns:xlink="http://www.w3.org/1999/xlink" width="200" height="200"><defs><style type="text/css"></style></defs><path d="M511.999488 546.136471c-11.30344 0-20.466124-9.162684-20.466124-20.466124L491.533364 129.74704c0-11.30344 9.162684-20.466124 20.466124-20.466124s20.466124 9.162684 20.466124 20.466124l0 395.924331C532.465612 536.973788 523.302929 546.136471 511.999488 546.136471z" p-id="2480" fill="#ffffff"></path><path d="M512.019954 889.163035c-50.906413 0-100.30038-9.974166-146.81067-29.647227-44.913932-18.995633-85.2455-46.187949-119.876228-80.817654-34.629705-34.629705-61.822021-74.961272-80.818677-119.873158-19.672038-46.509267-29.647227-95.901187-29.647227-146.804531 0-65.237817 17.010419-129.500423 49.193399-185.841615 31.126928-54.493102 75.885318-100.857059 129.436978-134.077671 9.605775-5.958712 22.223141-3.00238 28.180829 6.602372 5.958712 9.604752 3.003404 22.222117-6.602372 28.180829-47.783283 29.643134-87.712691 70.999031-115.472941 119.597889-28.656667 50.167586-43.803645 107.410312-43.803645 165.53922 0 89.802282 34.972513 174.231183 98.475825 237.734496 63.504336 63.503313 147.936307 98.474802 237.743706 98.474802 89.798189 0 174.22402-34.972513 237.725286-98.474802 63.502289-63.504336 98.473779-147.932214 98.473779-237.734496 0-58.134025-15.144932-115.377774-43.796482-165.543314-27.759227-48.602951-67.690682-89.956801-115.478058-119.591749-9.605775-5.957689-12.56313-18.573008-6.606465-28.179806 5.957689-9.606799 18.571984-12.564154 28.178783-6.607488 53.558823 33.214473 98.321306 79.577407 129.449257 134.076648 32.17684 56.338123 49.184189 120.601752 49.184189 185.844685 0 50.903344-9.974166 100.295264-29.647227 146.804531-18.995633 44.911886-46.186925 85.24243-80.815607 119.873158-34.629705 34.629705-74.959226 61.819974-119.870088 80.817654C612.312148 879.187847 562.922275 889.163035 512.019954 889.163035z" p-id="2481" fill="#ffffff"></path></svg>