<?xml version="1.0" standalone="no"?><!DOCTYPE svg PUBLIC "-//W3C//DTD SVG 1.1//EN" "http://www.w3.org/Graphics/SVG/1.1/DTD/svg11.dtd"><svg t="1502951476255" class="icon" style="" viewBox="0 0 1024 1024" version="1.1" xmlns="http://www.w3.org/2000/svg" p-id="4056" xmlns:xlink="http://www.w3.org/1999/xlink" width="32" height="32"><defs><style type="text/css"></style></defs><path d="M107.90912 941.6192c0-254.69952 0-509.3888 0-764.08832 0.54272-1.46432 1.28-2.88768 1.59744-4.4032 6.88128-32.6656 26.34752-54.07744 58.65472-61.93152 12.73856-3.10272 26.50112-2.17088 39.82336-2.58048 12.20608-0.37888 24.43264-0.08192 37.4272-0.08192 0-9.78944-0.16384-18.56512 0.03072-27.33056 0.78848-36.9152 21.32992-61.70624 57.47712-69.62176C303.9232 11.3664 304.82432 10.7008 305.7664 10.24c5.36576 0 10.72128 0 16.08704 0 0.68608 0.39936 1.3312 0.99328 2.06848 1.16736 39.30112 9.40032 58.22464 33.41312 58.29632 74.0352 0.01024 7.424 0 14.83776 0 22.38464 92.17024 0 183.32672 0 274.98496 0 0-9.2672-0.14336-17.82784 0.02048-26.38848 0.7168-37.04832 21.248-61.92128 57.47712-69.84704C715.71456 11.3664 716.61568 10.7008 717.568 10.24c5.36576 0 10.72128 0 16.08704 0 1.7408 0.57344 3.45088 1.31072 5.23264 1.69984 23.62368 5.20192 40.94976 18.65728 49.53088 41.20576 3.7888 9.95328 4.3008 21.27872 5.45792 32.07168 0.79872 7.51616 0.1536 15.19616 0.1536 23.35744 21.16608 0 40.91904-0.28672 60.672 0.06144 33.37216 0.60416 62.80192 22.7328 72.84736 54.3744 1.51552 4.78208 2.6624 9.6768 3.97312 14.52032 0 254.69952 0 509.3888 0 764.08832-0.5632 1.44384-1.32096 2.84672-1.64864 4.34176-7.35232 33.30048-27.6992 53.9648-60.64128 62.32064-4.37248 1.10592-8.86784 1.6896-13.312 2.5088-224.13312 0-448.26624 0-672.38912 0-2.05824-0.49152-4.096-1.14688-6.18496-1.45408-32.4608-4.6592-54.00576-22.71232-65.24928-53.28896C110.36672 951.35744 109.29152 946.432 107.90912 941.6192zM146.67776 383.1296c0 3.70688 0 6.85056 0 10.00448 0 177.4592 0 354.92864 0 532.38784 0 30.07488 15.52384 45.74208 45.40416 45.74208 218.48064 0.02048 436.96128 0.02048 655.43168 0 29.47072 0 45.2096-15.72864 45.2096-45.11744 0.01024-178.00192 0.01024-356.00384 0.01024-533.99552 0-2.8672 0-5.74464 0-9.02144C643.7376 383.1296 395.66336 383.1296 146.67776 383.1296zM245.4016 147.51744c-3.6352-0.18432-6.2464-0.41984-8.8576-0.41984-15.27808-0.03072-30.55616-0.0512-45.83424-0.01024-27.50464 0.08192-43.97056 16.54784-44.00128 44.1344-0.0512 47.7184-0.02048 95.42656-0.02048 143.14496 0 2.85696 0 5.70368 0 8.7552 249.20064 0 497.23392 0 745.46176 0 0.23552-1.59744 0.53248-2.63168 0.53248-3.66592 0.03072-50.93376 0.3584-101.86752-0.12288-152.79104-0.21504-22.66112-17.57184-39.08608-40.35584-39.51616-16.88576-0.31744-33.78176 0.18432-50.65728-0.21504-6.1952-0.14336-7.69024 2.048-7.63904 7.87456 0.12288 16.34304 0.50176 32.74752-0.768 49.00864-2.6624 34.34496-32.34816 60.66176-67.31776 60.76416-35.38944 0.09216-65.06496-26.23488-67.77856-61.1328-1.21856-15.72864-0.59392-31.60064-0.8704-47.40096-0.0512-2.80576-0.38912-5.60128-0.60416-8.42752-1.96608-0.256-3.00032-0.50176-4.0448-0.50176-87.92064-0.03072-175.84128 0-263.76192-0.1536-5.61152-0.01024-6.62528 2.33472-6.62528 7.20896 0.02048 16.0768 0.50176 32.21504-0.67584 48.20992-2.37568 32.53248-28.61056 59.2384-59.58656 61.8496-35.95264 3.03104-66.10944-17.50016-74.01472-51.51744-2.33472-10.02496-2.03776-20.71552-2.38592-31.11936C245.11488 170.4448 245.4016 159.25248 245.4016 147.51744zM343.1936 137.50272c0.01024 0 0.03072 0 0.04096 0 0-20.0704 0.43008-40.15104-0.13312-60.20096-0.4608-16.06656-13.66016-28.19072-29.27616-28.20096-15.59552 0-29.10208 12.15488-29.2864 28.18048-0.4608 40.3968-0.3584 80.81408 0.1536 121.21088 0.07168 5.43744 2.80576 11.49952 5.9904 16.11776 6.94272 10.07616 19.8656 13.78304 31.39584 10.27072 12.26752-3.72736 20.6848-13.5168 20.992-26.37824C343.552 178.18624 343.1936 157.83936 343.1936 137.50272zM696.25856 137.45152c-0.07168 0-0.13312 0-0.2048 0 0 19.53792-0.29696 39.07584 0.09216 58.60352 0.34816 17.48992 12.66688 29.82912 29.02016 30.0032 16.82432 0.17408 29.73696-12.14464 29.9008-29.91104 0.3584-39.0656 0.27648-78.14144-0.09216-117.20704-0.0512-5.33504-1.90464-11.17184-4.5568-15.86176-6.23616-11.03872-19.38432-15.90272-31.87712-12.89216-12.36992 2.97984-21.80096 13.35296-22.12864 26.27584C695.86944 96.77824 696.25856 117.11488 696.25856 137.45152z" p-id="4057" fill="#585E62"></path><path d="M226.07872 695.84896c0-12.76928 0-24.76032 0-37.76512 2.88768-0.18432 5.70368-0.512 8.51968-0.512 150.8352-0.02048 301.66016 0.02048 452.49536-0.16384 6.98368-0.01024 9.63584 1.66912 9.05216 8.92928-0.62464 7.72096-0.41984 15.54432-0.0512 23.296 0.26624 5.44768-1.97632 7.28064-7.04512 6.74816-1.5872-0.16384-3.21536-0.02048-4.82304-0.02048-148.95104 0-297.91232 0-446.86336-0.02048C233.68704 696.33024 230.02112 696.02304 226.07872 695.84896z" p-id="4058" fill="#585E62"></path><path d="M226.18112 558.14144c0-12.51328 0-24.68864 0-37.31456 156.48768 0 312.56576 0 469.23776 0 0 12.26752 0 24.45312 0 37.31456C539.05408 558.14144 382.83264 558.14144 226.18112 558.14144z" p-id="4059" fill="#585E62"></path><path d="M499.5584 795.71968c0 12.61568 0 24.59648 0 37.23264-91.0336 0-181.94432 0-273.33632 0 0-12.288 0-24.46336 0-37.23264C317.22496 795.71968 407.95136 795.71968 499.5584 795.71968z" p-id="4060" fill="#585E62"></path></svg>