<?xml version="1.0" standalone="no"?><!DOCTYPE svg PUBLIC "-//W3C//DTD SVG 1.1//EN" "http://www.w3.org/Graphics/SVG/1.1/DTD/svg11.dtd"><svg t="1503041907135" class="icon" style="" viewBox="0 0 1024 1024" version="1.1" xmlns="http://www.w3.org/2000/svg" p-id="2697" xmlns:xlink="http://www.w3.org/1999/xlink" width="32" height="32"><defs><style type="text/css"></style></defs><path d="M512 0C229.376 0 0 229.376 0 512s229.376 512 512 512S1024 794.624 1024 512 794.624 0 512 0zM512 975.872c-256 0-463.872-207.872-463.872-463.872S256 48.128 512 48.128c256.512 0 463.872 207.872 463.872 463.872S768.512 975.872 512 975.872z" p-id="2698" fill="#ffffff"></path><path d="M296.96 660.992 296.96 660.992 361.984 726.528 727.04 363.008 662.016 297.472Z" p-id="2699" fill="#ffffff"></path><path d="M361.984 297.472 296.96 363.008 662.016 726.528 727.04 660.992 727.04 660.992Z" p-id="2700" fill="#ffffff"></path></svg>