<?xml version="1.0" standalone="no"?><!DOCTYPE svg PUBLIC "-//W3C//DTD SVG 1.1//EN" "http://www.w3.org/Graphics/SVG/1.1/DTD/svg11.dtd"><svg t="1502951348266" class="icon" style="" viewBox="0 0 1024 1024" version="1.1" xmlns="http://www.w3.org/2000/svg" p-id="3255" xmlns:xlink="http://www.w3.org/1999/xlink" width="32" height="32"><defs><style type="text/css"></style></defs><path d="M512.843 116.256c-217.526 0-393.852 176.377-393.852 393.807 0 217.57 176.326 393.853 393.852 393.853 217.523 0 393.853-176.282 393.853-393.853 0-217.43-176.33-393.807-393.853-393.807zM512.843 864.701c-197.445 0-358.124-158.938-358.124-355.767 0-196.882 160.679-356.948 358.124-356.948 197.493 0 358.124 160.067 358.124 356.948 0 358.973-358.124 355.767-358.124 355.767zM554.933 700.862c-8.768 0-14.94-2.075-18.523-6.221-3.537-4.148-5.327-11.878-5.327-23.191 0-4.714 0.565-11.312 1.652-20.173 1.082-8.862 2.308-16.779 3.721-23.568l16.924-85.972c1.648-7.919 2.78-16.592 3.394-26.017 0.611-9.427 0.942-16.026 0.942-19.796 0-18.099-4.478-32.995-13.341-44.306s-21.445-16.969-37.802-16.969c-9.050 0-18.666 2.452-28.845 6.976-10.133 4.713-20.785 10.181-31.91 16.78l-4.524 26.583c3.25-1.884 7.209-3.77 11.829-5.657 4.62-2.074 9.145-3.017 13.53-3.017 8.956 0 14.989 2.263 18.144 6.599 3.205 4.337 4.762 11.877 4.762 23.002 0 6.033-0.519 12.819-1.556 20.173-0.989 7.353-2.262 15.271-3.817 23.567l-16.967 86.351c-1.508 9.050-2.639 17.157-3.298 24.32-0.709 7.165-1.037 14.14-1.037 21.117 0 17.721 4.569 32.239 13.669 43.929 9.145 11.499 21.964 17.157 38.412 17.157 10.7 0 20.078-2.075 28.185-6.033 8.107-3.959 18.949-9.803 32.524-17.534l4.523-26.585c-2.308 1.508-6.080 3.394-11.313 5.467-5.183 2.077-9.847 3.018-13.951 3.018zM539.71 295.177c-12.349 0-22.957 4.336-31.769 13.103-8.862 8.767-13.291 19.325-13.291 31.674 0 12.349 4.431 22.907 13.291 31.579 8.812 8.672 19.419 13.009 31.769 13.009 12.35 0 22.908-4.337 31.674-13.009 8.768-8.673 13.149-19.23 13.149-31.579 0-12.35-4.381-22.908-13.149-31.674-8.767-8.768-19.324-13.103-31.674-13.103z" p-id="3256" fill="#585E62"></path></svg>