<?xml version="1.0" standalone="no"?><!DOCTYPE svg PUBLIC "-//W3C//DTD SVG 1.1//EN" "http://www.w3.org/Graphics/SVG/1.1/DTD/svg11.dtd"><svg t="1506667834299" class="icon" style="" viewBox="0 0 1024 1024" version="1.1" xmlns="http://www.w3.org/2000/svg" p-id="2466" xmlns:xlink="http://www.w3.org/1999/xlink" width="200" height="200"><defs><style type="text/css"></style></defs><path d="M406.334425 573.037145c-1.936095 0-3.897773-0.425695-5.757121-1.323135-93.41353-45.274136-151.447271-137.64287-151.447271-241.060241 0-147.814534 120.236432-268.069385 268.031523-268.069385S785.192056 182.840258 785.192056 330.653769c0 103.462396-58.033741 195.83113-151.460574 241.060241-6.608511 3.226484-14.482853 0.432859-17.658172-6.137791-3.175319-6.569626-0.425695-14.46955 6.14393-17.651009 84.223217-40.781822 136.538723-124.031874 136.538723-217.271442 0-133.234467-108.374266-241.634316-241.59543-241.634316S275.565103 197.419302 275.565103 330.653769c0 93.200682 52.315506 176.456874 136.552026 217.271442 6.557346 3.181459 9.30697 11.087523 6.118348 17.658172C415.962713 570.294684 411.239132 573.037145 406.334425 573.037145z" p-id="2467" fill="#818588"></path><path d="M922.273131 913.546376c-6.80294 0-12.585643-5.220908-13.153578-12.120039-12.80463-153.951301-124.586506-283.055704-284.785092-328.897775-7.008624-2.006703-11.075243-9.326413-9.061376-16.341177 2.000564-7.04137 9.383718-11.087523 16.341177-9.073656 170.848133 48.894593 290.116517 187.111538 303.837007 352.11864 0.606821 7.27366-4.801353 13.663184-12.068873 14.270005C923.008888 913.533073 922.634358 913.546376 922.273131 913.546376z" p-id="2468" fill="#818588"></path><path d="M730.308051 957.422675 101.902878 957.422675c-7.305383 0-13.218046-3.060709-13.218046-10.359952 0-146.839323 131.582851-347.301937 307.671335-397.694651 7.04751-2.026146 14.353916 2.76702 16.341177 9.788947 2.013867 7.015787-2.052752 11.748578-9.061376 13.755282-159.901827 45.75816-280.655028 226.921219-288.141536 357.904413l614.812597 0c7.305383 0 13.218046 6.003737 13.218046 13.302981S737.613434 957.422675 730.308051 957.422675z" p-id="2469" fill="#818588"></path></svg>