<?xml version="1.0" standalone="no"?><!DOCTYPE svg PUBLIC "-//W3C//DTD SVG 1.1//EN" "http://www.w3.org/Graphics/SVG/1.1/DTD/svg11.dtd"><svg t="1505380598844" class="icon" style="" viewBox="0 0 1024 1024" version="1.1" xmlns="http://www.w3.org/2000/svg" p-id="1021" xmlns:xlink="http://www.w3.org/1999/xlink" width="200" height="200"><defs><style type="text/css"></style></defs><path d="M502.966831 648.942837c0-54.199012-36.132675-146.698659-91.05434-174.159492 26.015526-22.402258 42.636556-54.921665 42.636556-91.776994 0-66.484121-54.199012-120.683133-120.683133-120.683133S213.182781 316.52223 213.182781 383.006351c0 36.855328 16.62103 69.374735 42.636556 91.776994-54.921665 27.460833-91.05434 119.96048-91.05434 174.159492l0 21.679605 338.201835 0L502.966831 648.942837zM333.865914 305.682428c42.636556 0 77.323924 34.687368 77.323924 77.323924 0 42.636556-34.687368 77.323924-77.323924 77.323924-42.636556 0-77.323924-34.687368-77.323924-77.323924C256.54199 340.369795 291.229358 305.682428 333.865914 305.682428zM210.292167 627.263232c8.671842-52.031052 46.249824-117.792519 78.046577-117.792519l91.776994 0c31.796754 0 69.374735 65.038814 78.046577 117.792519L210.292167 627.263232z" p-id="1022" fill="#585E62"></path><path d="M617.146083 359.88144l220.409315 0c12.285109 0 21.679605-9.394495 21.679605-21.679605s-9.394495-21.679605-21.679605-21.679605L617.146083 316.52223c-12.285109 0-21.679605 9.394495-21.679605 21.679605S604.860974 359.88144 617.146083 359.88144z" p-id="1023" fill="#585E62"></path><path d="M617.146083 471.170078l220.409315 0c12.285109 0 21.679605-9.394495 21.679605-21.679605s-9.394495-21.679605-21.679605-21.679605L617.146083 427.810868c-12.285109 0-21.679605 9.394495-21.679605 21.679605S604.860974 471.170078 617.146083 471.170078z" p-id="1024" fill="#585E62"></path><path d="M617.146083 582.458716l220.409315 0c12.285109 0 21.679605-9.394495 21.679605-21.679605s-9.394495-21.679605-21.679605-21.679605L617.146083 539.099506c-12.285109 0-21.679605 9.394495-21.679605 21.679605S604.860974 582.458716 617.146083 582.458716z" p-id="1025" fill="#585E62"></path><path d="M961.129146 90.331687 62.870854 90.331687c-23.124912 0-41.913903 18.788991-41.913903 41.913903l0 758.786168c0 23.124912 18.788991 41.913903 41.913903 41.913903l153.202541 0 0-84.550459 127.187015 0 0 84.550459 337.479181 0 0-84.550459 127.187015 0 0 84.550459L961.129146 932.94566c23.124912 0 41.913903-18.788991 41.913903-41.913903l0-758.786168C1003.765702 109.120677 984.254058 90.331687 961.129146 90.331687zM960.406493 890.309104l-109.120677 0 0-84.550459L637.380381 805.758645l0 84.550459L386.619619 890.309104l0-84.550459L172.714185 805.758645l0 84.550459L64.316161 890.309104 64.316161 133.690896l896.090332 0L960.406493 890.309104z" p-id="1026" fill="#585E62"></path></svg>