<?xml version="1.0" standalone="no"?><!DOCTYPE svg PUBLIC "-//W3C//DTD SVG 1.1//EN" "http://www.w3.org/Graphics/SVG/1.1/DTD/svg11.dtd"><svg t="1502952035186" class="icon" style="" viewBox="0 0 1024 1024" version="1.1" xmlns="http://www.w3.org/2000/svg" p-id="5885" xmlns:xlink="http://www.w3.org/1999/xlink" width="32" height="32"><defs><style type="text/css"></style></defs><path d="M959.762977 853.349365c0 0.002047 0 0.002047 0 0.002047-0.002047 58.861596-47.715745 106.578364-106.573247 106.578364-0.002047 0-0.00614 0.002047-0.00614 0.002047L171.058934 959.931822c-0.002047 0-0.004093-0.002047-0.008186-0.002047-58.857503 0-106.573247-47.717791-106.573247-106.58041L64.4775 213.860762c0-47.089481 38.175461-85.266989 85.266989-85.266989 0.002047 0 0.00614 0 0.010233 0l344.683297 0.002047 87.364767-62.547545c10.951423-3.975545 23.056112 1.654686 27.040866 12.565177l18.173918 49.982368 162.218592 0c47.089481 0 85.262896 38.175461 85.262896 85.266989l0 63.948451 0.002047 0c47.089481 0 85.262896 38.171368 85.262896 85.264942L959.762977 853.349365zM149.744489 171.229826c-0.002047 0-0.002047 0-0.004093 0-23.544229 0-42.629913 40.401152-42.629913 63.946404s19.086707 42.634006 42.634006 42.634006l30.80561 0c-0.002047 0-21.316491 0-21.316491 0l4.03592 0c0.273223-0.110517 0.452301-0.342808 0.733711-0.448208l255.408017-106.132202L149.744489 171.229826zM599.041402 175.073364l-22.630417-62.326511-0.027629 21.327748-0.004093-0.004093-75.92318 37.159318-0.194428 0L264.939091 277.809213l385.021004 0L599.041402 175.073364zM831.868121 213.862809c0-23.547299-19.088754-42.634006-42.63196-42.634006L642.519636 171.228803l52.316529 106.58041 137.02991 0c0 0 0 0 0.002047 0L831.868121 213.862809zM874.502128 320.445266 149.744489 320.445266c-0.00614 0-0.010233-0.00614-0.01535-0.00614-15.607466-0.002047-30.03813-4.504594-42.618657-11.825326l0 544.736589c0 35.319413 28.631084 63.946404 63.948451 63.946404l682.121586 0c35.319413 0 63.948451-28.626991 63.948451-63.946404L917.128971 704.133925l-85.264942 0c-47.089481 0-85.262896-38.171368-85.262896-85.264942 0-47.085388 38.173414-85.262896 85.262896-85.262896l85.266989 0L917.131017 363.077226C917.131017 339.529927 898.04431 320.445266 874.502128 320.445266zM917.128971 661.501966l0.002047-85.264942-85.266989 0c-23.542182 0-42.63196 19.086707-42.63196 42.63196 0 23.549346 19.088754 42.634006 42.63196 42.634006L917.128971 661.502989zM831.864028 597.553515l42.634006 0 0 42.629913-42.634006 0L831.864028 597.553515z" p-id="5886" fill="#585E62"></path></svg>