<?xml version="1.0" standalone="no"?><!DOCTYPE svg PUBLIC "-//W3C//DTD SVG 1.1//EN" "http://www.w3.org/Graphics/SVG/1.1/DTD/svg11.dtd"><svg t="1505381215189" class="icon" style="" viewBox="0 0 1024 1024" version="1.1" xmlns="http://www.w3.org/2000/svg" p-id="5102" xmlns:xlink="http://www.w3.org/1999/xlink" width="200" height="200"><defs><style type="text/css"></style></defs><path d="M270.125 512c-5.625 0-16.875 0-22.5-11.25L118.25 332V67.625h787.5v264.375l-135 168.75c-5.625 11.25-22.5 16.875-33.75 5.625-11.25-11.25-16.875-28.125-5.625-39.375L849.5 309.5V123.875H174.5V315.125l118.125 157.5c11.25 5.625 5.625 28.125-5.625 33.75-5.625 5.625-11.25 5.625-16.875 5.625z" p-id="5103" fill="#585E62"></path><path d="M393.875 309.5c-16.875 0-28.125-11.25-28.125-28.125V95.75c0-16.875 11.25-28.125 28.125-28.125s28.125 11.25 28.125 28.125v185.625c0 11.25-16.875 28.125-28.125 28.125z m230.62499999999997 0c-16.875 0-28.125-11.25-28.125-28.125V95.75c0-16.875 11.25-28.125 28.125-28.125s28.125 11.25 28.125 28.125v185.625c0 11.25-11.25 28.125-28.125 28.125z m-112.5 646.875c-174.375 0-315-140.625-315-315s146.25-309.375 315-309.375c174.375 0 315 140.625 315 315s-140.625 309.375-315 309.375z m0-568.125c-140.625 0-258.75 118.125-258.75 258.75C253.25 787.625 371.375 905.75 512 905.75s258.75-118.125 258.75-258.75c0-146.25-112.5-258.75-258.75-258.75z" p-id="5104" fill="#585E62"></path><path d="M512 827c-101.25 0-185.625-84.375-185.625-185.625s84.375-180 185.625-180c101.25 0 185.625 84.375 185.625 185.625S618.875 827 512 827z m0-309.375c-73.125 0-129.375 56.25-129.375 129.375s56.25 129.375 129.375 129.375 129.375-56.25 129.375-129.375-56.25-129.375-129.375-129.375z" p-id="5105" fill="#585E62"></path></svg>