<?xml version="1.0" standalone="no"?><!DOCTYPE svg PUBLIC "-//W3C//DTD SVG 1.1//EN" "http://www.w3.org/Graphics/SVG/1.1/DTD/svg11.dtd"><svg t="1502952148515" class="icon" style="" viewBox="0 0 1024 1024" version="1.1" xmlns="http://www.w3.org/2000/svg" p-id="6606" xmlns:xlink="http://www.w3.org/1999/xlink" width="32" height="32"><defs><style type="text/css"></style></defs><path d="M623.8 568.2c90.1-42.2 152.8-133.6 152.8-239.5 0-145.9-118.7-264.6-264.6-264.6S247.4 182.9 247.4 328.8c0 105.9 62.7 197.3 152.8 239.5C229.7 617 104.5 773.9 104.5 959.8h814.9c0.1-185.9-125.1-342.8-295.6-391.6zM288.1 328.8c0-123.5 100.5-223.9 223.9-223.9s223.9 100.4 223.9 223.9c0 122.2-98.5 221.7-220.2 223.7-1.3 0-2.5-0.2-3.7-0.2s-2.5 0.2-3.7 0.2C386.5 550.4 288.1 451 288.1 328.8zM147.6 919c20.2-181.9 173.9-324 360.7-325.8 1.3 0 2.5 0.2 3.7 0.2s2.5-0.2 3.7-0.2c186.8 1.9 340.5 144 360.7 325.9H147.6v-0.1z" fill="#585E62" p-id="6607"></path></svg>