<?xml version="1.0" standalone="no"?><!DOCTYPE svg PUBLIC "-//W3C//DTD SVG 1.1//EN" "http://www.w3.org/Graphics/SVG/1.1/DTD/svg11.dtd"><svg t="1503283837548" class="icon" style="" viewBox="0 0 1024 1024" version="1.1" xmlns="http://www.w3.org/2000/svg" p-id="2388" xmlns:xlink="http://www.w3.org/1999/xlink" width="32" height="32"><defs><style type="text/css"></style></defs><path d="M609.534332 46.546864v9.513154c0 90.985914 72.629546 165.008336 161.902613 165.008336 28.609458 0 56.71896-7.709315 81.291775-22.291019l8.318261-4.934561 98.049287 171.774735-8.114279 4.755577c-77.75409 45.535953-104.697696 146.180009-60.064662 224.355062 14.205738 24.952783 34.726914 45.665942 59.345726 59.912676l8.184272 4.738579-98.021289 171.728739-8.282264-4.794574c-24.771799-14.345725-52.837304-21.930051-81.160787-21.930051a161.937609 161.937609 0 0 0-79.974893 21.171118c-25.047774 14.265732-45.919919 35.172874-60.357636 60.460627-14.206737 24.952783-21.678074 53.248268-21.595081 81.822729l0.027997 9.536153H412.923805l-0.045996-9.46216c-0.214981-43.914097-17.167474-85.157432-47.736758-116.131679-30.535286-30.937251-71.070684-47.978736-114.136857-47.978737-28.487468 0-56.467982 7.624322-80.91281 22.041042l-8.309261 4.900564-98.028289-171.71974 8.080282-4.760577c37.530665-22.117035 64.407276-57.593882 75.680275-99.892122 11.275998-42.30924 5.603502-86.432319-15.974581-124.247959-14.29173-25.054773-34.954894-45.842926-59.756689-60.119657l-8.21227-4.72958 98.074284-171.754736 8.287264 4.826571c24.86879 14.481713 53.061285 22.134033 81.527754 22.134033 27.997512 0 55.652054-7.320349 79.972893-21.171119 25.047774-14.262733 45.916919-35.172874 60.353637-60.468626 14.356724-25.111768 21.824061-53.697228 21.597081-82.680653l-0.074994-9.581148 196.225562-0.030997m-0.001-46.541864h-0.005999l-196.225562 0.030997a46.551863 46.551863 0 0 0-33.035064 13.762777 46.547863 46.547863 0 0 0-13.497801 33.145054l0.074994 9.581149c0.161986 20.759155-5.184539 41.237335-15.461626 59.213738-10.321083 18.086393-25.177763 32.988068-42.979181 43.127167a115.270756 115.270756 0 0 1-56.94294 15.072661c-20.249201 0-40.343415-5.468514-58.107836-15.813595l-8.286263-4.823571a46.525865 46.525865 0 0 0-35.489846-4.72958 46.526865 46.526865 0 0 0-28.348481 21.870056l-98.073285 171.754737c-12.71287 22.262022-5.027553 50.614502 17.188473 63.409365l8.21227 4.72958c17.647432 10.158097 32.361124 24.971781 42.557218 42.848192 15.475625 27.11959 19.533264 58.795775 11.428984 89.202073-8.10628 30.415297-27.403565 55.907032-54.337171 71.780621l-8.076282 4.758577c-21.932051 12.921852-29.414386 41.064351-16.793508 63.173386l98.027289 171.71774a46.549863 46.549863 0 0 0 40.417408 23.466914c8.245267 0 16.417541-2.189805 23.643899-6.451426l8.309262-4.900565c17.292463-10.198094 37.095703-15.589615 57.27091-15.589614 30.518288 0 59.289731 12.120923 81.012801 34.129967 21.976047 22.268021 34.164964 51.981381 34.31995 83.665564l0.044996 9.46216c0.124989 25.614724 20.92614 46.313884 46.540864 46.313884h196.160568a46.540864 46.540864 0 0 0 46.541864-46.677852l-0.027998-9.536153c-0.059995-20.461182 5.299529-40.746379 15.498623-58.656787 10.278087-18.0044 25.137766-32.906076 42.946183-43.047175a115.285755 115.285755 0 0 1 56.94094-15.07266c20.14121 0 40.141433 5.417519 57.83686 15.663608l8.287264 4.797574a46.543864 46.543864 0 0 0 35.44785 4.655586 46.537864 46.537864 0 0 0 28.290485-21.862057L998.866734 682.450353c12.687872-22.225025 5.047551-50.52651-17.099481-63.349371l-8.184273-4.738579c-17.498445-10.1241-32.094148-24.875789-42.220248-42.661208-32.077149-56.183007-12.71187-128.460584 43.139167-161.167678l8.124278-4.760577c21.998045-12.890854 29.530376-41.084349 16.889499-63.227381l-98.048287-171.774735a46.536864 46.536864 0 0 0-40.419408-23.468914 46.555863 46.555863 0 0 0-23.74389 6.510421l-8.319261 4.934562a112.805975 112.805975 0 0 1-57.548885 15.779597c-63.610347 0-115.360748-53.143277-115.360749-118.466472V46.546864A46.542864 46.542864 0 0 0 609.533332 0.005z" p-id="2389" fill="#585E62"></path><path d="M511.351058 317.860753c105.881591 0 192.020936 87.080261 192.020935 194.116749s-86.139345 194.11375-192.020935 194.11375-192.020936-87.077262-192.020936-194.11375 86.141345-194.116749 192.020936-194.116749m0-46.541864c-131.54331 0-238.5628 107.959406-238.5628 240.657613s107.01849 240.654614 238.5628 240.654614 238.5618-107.956406 238.561799-240.654614-107.01749-240.657613-238.561799-240.657613z" p-id="2390" fill="#585E62"></path></svg>