<?xml version="1.0" standalone="no"?><!DOCTYPE svg PUBLIC "-//W3C//DTD SVG 1.1//EN" "http://www.w3.org/Graphics/SVG/1.1/DTD/svg11.dtd"><svg t="1502951911660" class="icon" style="" viewBox="0 0 1024 1024" version="1.1" xmlns="http://www.w3.org/2000/svg" p-id="4964" xmlns:xlink="http://www.w3.org/1999/xlink" width="32" height="32"><defs><style type="text/css"></style></defs><path d="M512 62.577599c-152.651934 0-276.400285 123.748352-276.400285 276.400286s123.748352 276.400285 276.400285 276.400285 276.400285-123.750359 276.400285-276.400285S664.651934 62.577599 512 62.577599z m0 518.66697c-133.586246 0-242.266684-108.680438-242.266684-242.266684S378.413754 96.7112 512 96.7112c133.586246 0 242.266684 108.680438 242.266684 242.266685s-108.680438 242.266684-242.266684 242.266684z" fill="#585e62" p-id="4965"></path><path d="M322.342571 540.024553C175.187576 611.278044 71.199304 763.719251 62.677945 942.517267a17.0668 17.0668 0 1 0 34.031248 1.838333h0.034118c8.144059-171.593192 111.217178-317.323278 254.996543-380.157762a278.158342 278.158342 0 0 1-29.397283-24.173285zM791.256125 601.149147l0.08429-0.084291c-27.803793-23.5391-58.357058-43.648382-91.063743-59.75387a277.714814 277.714814 0 0 1-29.543788 23.956537c34.58315 15.38902 66.784092 35.578579 95.832172 59.781968a17.141056 17.141056 0 0 0 12.780031 5.713685 17.207284 17.207284 0 0 0 17.207285-17.207284 17.151091 17.151091 0 0 0-5.296247-12.406745z" fill="#585e62" p-id="4966"></path><path d="M944.357607 802.133601h-108.088398v-108.088398a17.068807 17.068807 0 0 0-34.133601 0v108.088398h-108.088398a17.068807 17.068807 0 0 0 0 34.133601h108.088398v108.088398a17.068807 17.068807 0 0 0 34.133601 0v-108.088398h108.088398a17.068807 17.068807 0 0 0 0-34.133601z" fill="#585e62" p-id="4967"></path></svg>